<svg fill="none" height="44" viewBox="0 0 44 44" width="44" xmlns="http://www.w3.org/2000/svg"><path clip-rule="evenodd" d="m8.37369 4.90469h13.39111c9.3116 0 16.86 7.54861 16.86 16.86011 0 9.3116-7.5484 16.8601-16.86 16.8601-9.3115 0-16.85995-7.5485-16.85995-16.8601h-4.90485c0 12.0204 9.74428 21.7648 21.7648 21.7648 3.8259 0 7.4212-.9872 10.545-2.7206h8.4992v-8.4989c1.7336-3.1241 2.7206-6.7193 2.7206-10.5453 0-12.02035-9.7443-21.7648-21.7648-21.7648h-21.7648v3.46203l13.0275 13.03257c-.9299 1.5384-1.4649 3.3417-1.4649 5.2702 0 5.6345 4.5677 10.2023 10.2022 10.2023s10.2023-4.5678 10.2023-10.2023-4.5678-10.2022-10.2023-10.2022c-1.9279 0-3.7312.5348-5.2692 1.4642zm13.39111 22.15771c2.9259 0 5.2974-2.3719 5.2974-5.2976s-2.3715-5.2976-5.2974-5.2976c-2.9258 0-5.2974 2.3719-5.2974 5.2976s2.3716 5.2976 5.2974 5.2976z" fill="#fff" fill-rule="evenodd"/></svg>